The Losers 
http://www.imdb.com/title/tt0480255/


Source  :

The Losers (2010) BluRay 1080p DTS x264-CHD


Info:

ID                               : 1
Format                           : AVC
Format/Info                      : Advanced Video Codec
Format profile                   : Baseline@L2.0
Format settings, CABAC           : No
Format settings, ReFrames        : 3 frames
Codec ID                         : avc1
Codec ID/Info                    : Advanced Video Coding
Duration                         : 1h 36mn
Bit rate mode                    : Variable
Bit rate                         : 400 Kbps
Width                            : 480 pixels
Height                           : 208 pixels
Display aspect ratio             : 2.35:1
Frame rate mode                  : Variable
Frame rate                       : 23.976 fps
Minimum frame rate               : 23.810 fps
Maximum frame rate               : 24.390 fps
Color space                      : YUV
Chroma subsampling               : 4:2:0
Bit depth                        : 8 bits
Scan type                        : Progressive
Bits/(Pixel*Frame)               : 0.167
Stream size                      : 277 MiB (75%)
Writing library                  : x264 core 79

ID                               : 2
Format                           : AAC
Format/Info                      : Advanced Audio Codec
Format version                   : Version 4
Format profile                   : LC
Format settings, SBR             : No
Codec ID                         : 40
Duration                         : 1h 37mn
Bit rate mode                    : Variable
Bit rate                         : 128 Kbps
Maximum bit rate                 : 180 Kbps
Channel(s)                       : 2 channels
Channel positions                : Front: L R
Sampling rate                    : 48.0 KHz
Stream size                      : 88.6 MiB (24%)
Language                         : English

Screens : 
http://img706.imageshack.us/img706/725/vlcsnap00001f.png 
http://img444.imageshack.us/img444/1282/vlcsnap00002t.png 
http://img43.imageshack.us/img43/7651/vlcsnap00003w.png 
http://img340.imageshack.us/img340/5638/vlcsnap00004m.png 
http://img23.imageshack.us/img23/8872/vlcsnap00005s.png 
http://img228.imageshack.us/img228/3027/vlcsnap00006d.png 
http://img713.imageshack.us/img713/4978/vlcsnap00007b.png 
http://img51.imageshack.us/img51/8315/vlcsnap00008c.png


PLEASE LET THE TORRENT SEED AND SHARE IT WITH ALL YOU KNOW!

Let me know what I can do to be your trusted source of Handheld videos. 
http://thepiratebay.org/user/on.off.on/ -OOO